<svg width="64" height="64" viewBox="0 0 64 64" fill="none" xmlns="http://www.w3.org/2000/svg">
<path d="M20.5 47L31.5 51L39.5 50L47.5 44.5L52 32L50.4474 23.4606C50.1509 21.8301 49.603 20.2556 48.8231 18.7933L46 13.5L42.6147 11.6771C40.563 10.5724 38.2948 9.9291 35.9686 9.79227L31 9.5L30 10L25 9.5L19.5 12L15 15L11.5 21L10.5 27L11.5 33L14.5 40.5L20.5 47Z" fill="#6DEDE3"/>
<path d="M53.3597 28.0429C52.7072 19.8357 47.341 10.9536 38.5997 8.59646C37.6322 8.33931 36.6422 8.18932 35.641 8.11432C35.461 8.1036 35.3035 8.12503 35.1685 8.1786C30.0722 7.79289 24.8747 7.66432 20.0935 9.63574C15.616 11.4679 12.2185 14.9286 10.4972 19.2465C7.18975 27.55 9.52975 37.8786 15.8635 44.3072C19.0135 47.5107 23.1535 49.7929 27.6085 50.9179C32.4572 52.1393 38.0147 52.2357 42.5372 49.9322C50.3672 45.9143 54.001 36.1107 53.3597 28.0429ZM43.5835 46.7607C40.0172 49.5465 35.2585 50.0822 30.8147 49.4393C26.7535 48.8607 22.8047 47.2965 19.6097 44.8107C12.9385 39.6143 9.95725 30.8072 11.6785 22.7929C12.6685 18.1965 15.4135 14.2536 19.8235 12.025C24.976 9.43217 30.961 9.89289 36.5635 10.3536C36.676 10.3643 36.7772 10.3536 36.8672 10.3322C44.2247 11.575 49.2872 18.7 50.7497 25.2786C52.4147 32.7572 49.9285 41.8215 43.5835 46.7607Z" fill="black"/>
<path d="M23.5811 28.6537C23.9973 29.0501 24.7061 29.0501 25.1223 28.6537C25.5386 28.2572 25.5386 27.5822 25.1223 27.1858C24.2786 26.393 23.3898 25.6537 22.4786 24.9465C23.1986 23.8858 23.9073 22.8251 24.6273 21.7537C25.3923 20.6287 23.5023 19.5787 22.7373 20.7037C22.0736 21.6894 21.4098 22.6858 20.7348 23.6715C19.7448 22.9858 18.7211 22.343 17.6636 21.7644C17.1573 21.4858 16.4711 21.6465 16.1673 22.1394C15.8748 22.6215 16.0436 23.2751 16.5611 23.5644C17.6073 24.143 18.5973 24.7644 19.5536 25.4287C18.3836 27.1644 17.2248 28.9001 16.0548 30.6251C15.2898 31.7501 17.1798 32.8001 17.9448 31.6751C19.0586 30.0144 20.1723 28.3644 21.2973 26.7037C22.0736 27.3144 22.8386 27.9572 23.5811 28.6537Z" fill="black"/>
<path d="M40.9736 24.3892C42.1549 22.8357 43.3361 21.2928 44.5399 19.7499C44.8886 19.2999 44.6186 18.5928 44.1461 18.3249C43.5949 18.0142 43.0099 18.2499 42.6499 18.6999C41.5024 20.1678 40.3774 21.6464 39.2411 23.1249C37.7561 22.0749 36.2486 21.0678 34.7074 20.1142C33.5261 19.3857 32.4349 21.1857 33.6049 21.9142C35.0899 22.8357 36.5411 23.7999 37.9586 24.8071C36.7436 26.4035 35.5174 27.9999 34.2911 29.5857C33.9424 30.0357 34.2124 30.7428 34.6849 31.0107C35.2361 31.3214 35.8211 31.0857 36.1811 30.6357C37.3624 29.1249 38.5211 27.5928 39.6911 26.0714C40.7824 26.8857 41.8511 27.7214 42.8974 28.5892C43.3361 28.9535 43.9999 29.0071 44.4386 28.5892C44.8324 28.2142 44.8886 27.4857 44.4386 27.1214C43.3136 26.1678 42.1549 25.2678 40.9736 24.3892Z" fill="black"/>
<path d="M40.1423 36.5075C38.9423 37.4575 37.7823 38.4475 36.6423 39.4675C35.5623 38.4075 34.4923 37.3475 33.4123 36.2775C33.0323 35.9075 32.4123 35.9075 32.0323 36.2775C31.2523 37.0475 30.4623 37.8175 29.6723 38.5775C29.3023 38.9375 28.9223 39.2975 28.5423 39.6575C28.4923 39.6975 28.4323 39.7475 28.3823 39.7975C28.2823 39.7375 28.1923 39.6775 28.1023 39.6175C27.6823 39.3175 27.2723 39.0175 26.8723 38.6975C25.9923 38.0075 25.1223 37.2975 24.3423 36.4875C23.9523 36.0875 23.3623 36.1475 22.9623 36.4875C21.9923 37.3175 21.0823 38.2075 20.2523 39.1675C19.4323 40.1075 20.8023 41.4975 21.6323 40.5475C22.2623 39.8175 22.9423 39.1475 23.6523 38.4975C24.3923 39.1875 25.1823 39.8375 25.9823 40.4475C26.6223 40.9375 27.5923 41.9475 28.4723 41.9675C29.2423 41.9775 29.9623 41.0175 30.4623 40.5375C31.2223 39.8075 31.9723 39.0675 32.7223 38.3375C33.7823 39.3875 34.8523 40.4375 35.9123 41.4875C36.3023 41.8675 36.9023 41.8475 37.2923 41.4875C38.6623 40.2375 40.0723 39.0375 41.5223 37.8775C42.5023 37.1075 41.1223 35.7375 40.1423 36.5075Z" fill="black"/>
</svg>
