<svg width="64" height="64" viewBox="0 0 64 64" fill="none" xmlns="http://www.w3.org/2000/svg">
<g clip-path="url(#clip0)">
<path d="M20.5 47L31.5 51L28.5378 42.1133C27.5352 39.1057 27.4488 35.868 28.2894 32.8112L31.1611 22.3687C32.0325 19.1999 31.907 15.8397 30.8017 12.7448L30 10.5V10L25 9.5L19.5 12L15 15L11.5 21L10.5 27L11.5 33L14.5 40.5L20.5 47Z" fill="#6DEDE3"/>
<path d="M52.5452 28.416C51.916 20.2453 46.7418 11.4026 38.3133 9.05597C37.3804 8.79997 36.4259 8.65064 35.4604 8.57597C35.2869 8.56531 35.135 8.58664 35.0049 8.63997C30.091 8.25597 25.0794 8.12797 20.4693 10.0906C16.152 11.9146 12.876 15.36 11.2164 19.6586C8.02723 27.9253 10.2835 38.208 16.3906 44.608C19.4279 47.7973 23.4198 50.0693 27.7154 51.1893C32.3906 52.4053 37.7493 52.5013 42.1099 50.208C49.6598 46.208 53.1635 36.448 52.5452 28.416ZM43.1188 47.0506C39.6801 49.824 35.0916 50.3573 30.8069 49.7173C26.891 49.1413 23.0835 47.584 20.0028 45.1093C13.5703 39.936 10.6957 31.168 12.3554 23.1893C13.3099 18.6133 15.9567 14.688 20.2089 12.4693C25.1771 9.88797 30.9479 10.3466 36.3499 10.8053C36.4584 10.816 36.556 10.8053 36.6428 10.784C43.7371 12.0213 48.6184 19.1146 50.0286 25.664C51.634 33.1093 49.2367 42.1333 43.1188 47.0506Z" fill="black"/>
<path d="M40.1423 37.5075C38.9423 38.4575 37.7823 39.4475 36.6423 40.4675C35.5623 39.4075 34.4923 38.3475 33.4123 37.2775C33.0323 36.9075 32.4123 36.9075 32.0323 37.2775C31.2523 38.0475 30.4623 38.8175 29.6723 39.5775C29.3023 39.9375 28.9223 40.2975 28.5423 40.6575C28.4923 40.6975 28.4323 40.7475 28.3823 40.7975C28.2823 40.7375 28.1923 40.6775 28.1023 40.6175C27.6823 40.3175 27.2723 40.0175 26.8723 39.6975C25.9923 39.0075 25.1223 38.2975 24.3423 37.4875C23.9523 37.0875 23.3623 37.1475 22.9623 37.4875C21.9923 38.3175 21.0823 39.2075 20.2523 40.1675C19.4323 41.1075 20.8023 42.4975 21.6323 41.5475C22.2623 40.8175 22.9423 40.1475 23.6523 39.4975C24.3923 40.1875 25.1823 40.8375 25.9823 41.4475C26.6223 41.9375 27.5923 42.9475 28.4723 42.9675C29.2423 42.9775 29.9623 42.0175 30.4623 41.5375C31.2223 40.8075 31.9723 40.0675 32.7223 39.3375C33.7823 40.3875 34.8523 41.4375 35.9123 42.4875C36.3023 42.8675 36.9023 42.8475 37.2923 42.4875C38.6623 41.2375 40.0723 40.0375 41.5223 38.8775C42.5023 38.1075 41.1223 36.7375 40.1423 37.5075Z" fill="black"/>
<path d="M22.7579 25.3227C23.4522 24.2667 24.1356 23.2107 24.8298 22.1441C25.5674 21.0241 23.745 19.9787 23.0074 21.0987C22.3674 22.0801 21.7274 23.0721 21.0766 24.0534C20.122 23.3707 19.1349 22.7307 18.1152 22.1547C17.6271 21.8774 16.9654 22.0374 16.6725 22.5281C16.3905 23.0081 16.5532 23.6587 17.0522 23.9467C18.061 24.5227 19.0156 25.1414 19.9376 25.8027C18.8095 27.5307 17.6922 29.2587 16.564 30.9761C15.8264 32.0961 17.6488 33.1414 18.3864 32.0214C19.4603 30.3681 20.5342 28.7254 21.6189 27.0721C22.3783 27.6907 23.1159 28.3201 23.821 29.0134C24.2223 29.4081 24.9057 29.4081 25.3071 29.0134C25.7084 28.6187 25.7084 27.9467 25.3071 27.5521C24.5044 26.7734 23.6474 26.0374 22.7579 25.3227Z" fill="black"/>
<path d="M40.6019 24.7786C41.7409 23.232 42.8799 21.696 44.0406 20.16C44.3769 19.712 44.1165 19.008 43.6609 18.7413C43.1294 18.432 42.5653 18.6666 42.2182 19.1146C41.1118 20.576 40.027 22.048 38.9314 23.52C37.4996 22.4746 36.046 21.472 34.5599 20.5226C33.4209 19.7973 32.3687 21.5893 33.4969 22.304C34.9287 23.2213 36.328 24.1813 37.6948 25.184C36.5233 26.7733 35.3409 28.3626 34.1586 29.9413C33.8223 30.3893 34.0826 31.0933 34.5382 31.36C35.0697 31.6693 35.6338 31.4346 35.9809 30.9866C37.1199 29.4826 38.2372 27.9573 39.3653 26.4426C40.4175 27.2533 41.448 28.0853 42.4569 28.9493C42.8799 29.312 43.5199 29.3653 43.943 28.9493C44.3226 28.576 44.3769 27.8506 43.943 27.488C42.8582 26.5493 41.7409 25.6533 40.6019 24.7786Z" fill="black"/>
</g>
<defs>
<clipPath id="clip0">
<rect width="64" height="64" fill="white"/>
</clipPath>
</defs>
</svg>
