<svg width="1026" height="299" viewBox="0 0 1026 299" fill="none" xmlns="http://www.w3.org/2000/svg">
<path d="M101.737 239.165C101.978 251.046 102.218 263.36 101.737 275.722C101.112 287.94 94.3291 297.079 84.9967 298.667C84.4676 298.763 83.9384 298.811 83.4093 298.859C76.0011 299.388 67.9195 294.915 64.1673 285.968C56.7111 293.905 48.1484 298.138 39.0085 298.138C14.0902 298.426 1.63104 269.132 0.524629 241.811C-0.726097 209.006 0.76515 176.538 2.59313 146.33C3.07418 135.7 9.08729 127.33 17.1689 126.127C26.5012 124.732 34.8234 133.054 35.7374 144.646C37.4692 168.745 38.6237 190.535 39.2971 211.315C39.3452 213.335 39.3452 216.173 39.2971 219.588C39.0566 237.097 39.7301 248.353 41.2694 253.115C52.1411 245.322 62.9166 214.441 64.023 203.715C65.0332 194.527 65.0332 184.186 64.9851 173.315V169.034C64.9851 157.682 65.2256 148.11 65.7067 138.97C65.8029 128.581 71.7679 119.874 80.1381 118.094C88.5084 116.267 98.3699 121.991 99.5725 134.305C102.026 159.365 102.747 181.107 101.785 204.725C101.304 215.981 101.497 227.236 101.737 239.165ZM169.709 210.689C168.122 216.269 165.62 221.705 162.109 225.841C158.068 230.555 153.113 232.96 147.822 232.624C138.73 231.998 131.033 225.36 127.57 215.067C124.347 205.494 126.415 193.998 131.851 185.436C138.056 175.672 147.822 174.036 156.769 173.988C158.02 173.988 159.126 174.421 160.04 175.143C160.81 175.431 161.58 175.864 162.205 176.441C170.431 183.705 173.269 198.279 169.709 210.689ZM300.795 265.621C290.645 277.983 277.127 285.391 263.562 286.353C261.109 286.545 258.655 286.497 256.25 286.208C227.628 282.986 208.001 256.001 204.537 215.788C201.988 185.917 203.912 142.722 227.772 106.213C234.458 96.2084 243.791 84.5679 257.356 82.8844C276.646 80.4312 292.088 96.8818 298.823 114.343C301.228 120.74 300.843 127.57 297.909 133.246C294.878 139.067 289.683 142.77 283.67 143.396C277.993 144.021 270.441 142.001 266.304 134.593C264.043 130.841 262.407 129.927 261.878 129.735C259.04 131.659 252.738 142.578 248.024 158.548C244.176 172.064 242.925 188.322 244.176 208.14C246.244 237.819 256.875 238.54 260.435 238.781C276.598 239.839 280.11 217.231 280.543 213.575C281.409 203.811 287.855 196.259 295.985 195.489C305.028 194.624 315.659 202.705 316.477 214.778C317.968 233.153 312.244 251.672 300.795 265.621ZM449.68 165.186C449.728 194.143 448.333 223.1 446.986 248.16C446.408 258.694 441.55 267.016 433.613 271.008L430.967 272.163C425.339 274.424 418.844 273.943 413.216 270.864C406.962 267.401 402.729 261.292 401.479 254.077C399.602 244.553 400.468 234.163 401.238 224.975C401.43 222.763 401.575 220.646 401.719 218.53C401.911 213.72 402.152 208.525 402.392 203.33C402.633 197.654 402.922 191.834 403.162 186.062C396.139 187.505 389.164 188.659 382.237 189.717C382.525 201.31 382.814 213.094 382.814 224.879C382.862 226.419 382.91 228.246 382.958 230.074C383.343 241.474 383.776 254.413 377.618 267.689C374.492 274.472 368.623 278.753 361.936 279.234C353.855 279.811 345.917 274.808 342.55 267.16C337.259 254.462 337.21 242.581 337.162 231.036C337.162 229.16 337.162 227.236 337.114 225.312C337.114 211.7 336.922 198.76 336.729 185.1V184.378C336.585 177.451 336.345 170.381 336.104 163.213C335.382 142.241 334.661 120.596 335.96 98.9021C336.489 87.3097 344.234 77.7856 354.432 76.4869C364.438 75.2363 373.193 82.1628 375.165 92.9856C377.618 107.127 379.254 122.424 380.361 141.279C380.697 141.183 381.034 141.135 381.419 141.039C388.875 139.451 396.572 137.816 404.028 135.844C403.98 132.958 403.932 130.12 403.884 127.234C403.836 124.396 403.691 121.702 403.595 119.057C403.114 108.57 402.633 96.7375 406.048 84.3755C408.357 75.3325 415.092 68.6464 423.078 67.6844C433.613 66.3856 443.522 74.8514 445.158 86.6363C447.226 103.568 448.525 120.644 449.102 137.624C450.786 140.413 451.892 143.588 452.373 147.003C452.71 148.879 452.758 150.563 452.806 151.717C452.951 156.335 451.844 161.049 449.68 165.186ZM817.537 115.882C819.943 120.019 823.166 124.011 826.629 128.244C834.711 138.153 843.851 149.456 845.775 167.254C848.18 190.439 838.607 222.955 816.239 237.482C807.82 242.917 795.12 249.555 781.844 250.469C771.886 251.143 762.554 248.497 754.809 242.773C745.573 235.846 742.638 222.715 747.93 212.084C753.029 201.887 764.045 197.029 774.724 200.348L775.061 200.444C775.205 200.492 775.782 200.588 777.658 200.444C783.96 199.915 789.829 195.586 790.935 192.892C794.062 185.532 793.389 176.153 789.204 168.841C786.991 165.089 783.96 161.289 780.737 157.249C774.099 148.831 766.546 139.355 763.131 125.743C757.166 102.317 763.564 71.6768 778.765 51.1375C790.502 35.3122 806.473 26.4616 823.743 26.2692C835.432 26.4135 845.775 36.7552 846.545 48.8287C847.218 59.2185 840.964 68.8869 830.959 72.8312C822.685 75.9578 818.596 83.8464 816.864 88.2717C813.208 97.94 813.448 108.715 817.537 115.882ZM1012.46 218.241C994.996 229.641 972.916 236.953 951.846 238.396C937.03 239.406 923.176 237.626 911.775 233.249C879.689 220.983 878.919 184.234 878.39 159.943C878.342 156.672 878.246 153.497 878.101 150.515C876.466 114.92 877.38 77.7375 894.938 46.3755C913.891 13.3299 950.884 6.69195 978.304 1.78563L985.086 0.534992C1000.14 -2.39919 1014.09 9.91474 1016.16 22.9983C1018.04 34.9274 1010.73 46.3755 998.46 50.7527C992.35 52.8211 986.097 54.3603 980.084 55.8033C966.807 59.0261 951.894 62.6818 946.266 69.9932C942.129 75.2363 939.579 82.6438 937.944 90.34C948.479 88.0793 958.917 86.4438 969.116 86.2995C981.286 85.8666 992.447 95.1021 994.611 107.801C996.536 118.96 990.955 129.783 980.468 135.555L977.438 137.335L975.658 137.96C974.407 138.393 972.916 138.922 971.04 139.307C959.398 143.155 946.987 145.368 935.25 146.955C935.442 150.226 935.635 153.545 935.827 156.96C936.02 159.798 936.02 163.117 936.02 166.629C936.02 171.343 936.02 179.183 937.078 181.877C937.03 181.588 938.569 182.502 943.62 182.069C956.464 181.011 974.696 172.738 982.537 169.226C998.556 162.3 1016.5 172.016 1022.66 185.1C1028.38 196.932 1024.15 210.593 1012.46 218.241Z" fill="url(#paint0_linear)"/>
<path d="M740.088 142.433C737.298 105.588 714.352 65.7119 676.975 55.1296C672.838 53.9752 668.605 53.3018 664.323 52.965C663.554 52.9169 662.88 53.0131 662.303 53.2537C640.511 51.522 618.287 50.9448 597.842 59.7954C578.697 68.0207 564.169 83.5575 556.809 102.942C542.666 140.221 552.672 186.59 579.755 215.451C593.224 229.833 610.927 240.079 629.976 245.13C650.71 250.613 674.473 251.046 693.811 240.704C727.292 222.666 742.83 178.654 740.088 142.433ZM698.285 226.466C683.036 238.973 662.688 241.378 643.686 238.492C626.32 235.894 609.436 228.871 595.774 217.712C567.248 194.383 554.5 154.844 561.86 118.864C566.093 98.2283 577.831 80.5271 596.688 70.522C618.72 58.8815 644.312 60.9499 668.268 63.0182C668.749 63.0663 669.182 63.0182 669.567 62.922C701.027 68.5018 722.674 100.489 728.928 130.023C736.047 163.598 725.416 204.292 698.285 226.466Z" fill="#A194FF"/>
<path d="M612.755 145.175C614.535 146.955 617.565 146.955 619.345 145.175C621.125 143.396 621.125 140.365 619.345 138.585C615.737 135.026 611.937 131.707 608.041 128.532C611.119 123.77 614.15 119.008 617.229 114.198C620.5 109.147 612.418 104.434 609.147 109.484C606.309 113.909 603.471 118.383 600.584 122.808C596.351 119.73 591.974 116.844 587.452 114.246C585.287 112.996 582.353 113.717 581.054 115.93C579.803 118.094 580.525 121.028 582.737 122.327C587.211 124.925 591.444 127.715 595.533 130.697C590.53 138.489 585.576 146.282 580.573 154.026C577.302 159.077 585.383 163.79 588.654 158.74C593.417 151.284 598.179 143.877 602.99 136.421C606.309 139.163 609.58 142.049 612.755 145.175Z" fill="#A194FF"/>
<path d="M687.125 126.032C692.176 119.057 697.227 112.131 702.374 105.204C703.866 103.184 702.711 100.009 700.691 98.8065C698.333 97.4115 695.832 98.4697 694.293 100.49C689.386 107.08 684.575 113.718 679.717 120.356C673.367 115.642 666.921 111.12 660.331 106.839C655.28 103.568 650.613 111.649 655.616 114.92C661.966 119.057 668.172 123.386 674.233 127.908C669.038 135.075 663.794 142.242 658.551 149.361C657.059 151.381 658.214 154.556 660.234 155.758C662.591 157.153 665.093 156.095 666.632 154.075C671.683 147.293 676.638 140.414 681.641 133.584C686.307 137.239 690.877 140.991 695.351 144.887C697.227 146.523 700.065 146.763 701.941 144.887C703.625 143.204 703.865 139.933 701.941 138.298C697.131 134.017 692.176 129.976 687.125 126.032Z" fill="#A194FF"/>
<path d="M687.798 178.365C686.163 194.479 670.384 206.985 654.75 207.755C637.192 208.669 621.029 197.75 611.985 183.223C608.81 178.124 600.729 182.838 603.904 187.937C614.968 205.59 635.412 219.203 656.915 216.894C677.263 214.729 695.014 199.048 697.131 178.317C697.756 172.4 688.424 172.448 687.798 178.365Z" fill="#A194FF"/>
<path d="M663.121 147.243C660.331 110.398 637.385 70.5219 600.007 59.9397C595.87 58.7852 591.637 58.1118 587.355 57.7751C586.586 57.727 585.912 57.8232 585.335 58.0637C563.544 56.3321 541.319 55.7548 520.875 64.6055C501.729 72.8308 487.201 88.3675 479.841 107.752C465.698 145.031 475.704 191.4 502.787 220.261C516.256 234.643 533.959 244.889 553.009 249.94C573.742 255.423 597.506 255.856 616.844 245.514C650.325 227.476 665.863 183.464 663.121 147.243ZM621.317 231.276C606.068 243.783 585.72 246.188 566.718 243.302C549.353 240.704 532.468 233.681 518.806 222.522C490.28 199.193 477.532 159.654 484.892 123.674C489.125 103.038 500.863 85.3371 519.72 75.3321C541.752 63.6916 567.344 65.7599 591.3 67.8283C591.781 67.8764 592.214 67.8283 592.599 67.7321C624.059 73.3118 645.707 105.299 651.96 134.833C659.08 168.408 648.449 209.102 621.317 231.276Z" fill="black"/>
<path d="M535.787 149.985C537.567 151.765 540.598 151.765 542.377 149.985C544.157 148.206 544.157 145.175 542.377 143.396C538.77 139.836 534.969 136.517 531.073 133.342C534.152 128.58 537.182 123.818 540.261 119.008C543.532 113.958 535.45 109.244 532.179 114.294C529.341 118.72 526.503 123.193 523.617 127.618C519.383 124.54 515.006 121.654 510.484 119.056C508.319 117.806 505.385 118.527 504.086 120.74C502.835 122.904 503.557 125.839 505.77 127.137C510.243 129.735 514.477 132.525 518.566 135.507C513.563 143.299 508.608 151.092 503.605 158.836C500.334 163.887 508.415 168.601 511.687 163.55C516.449 156.094 521.211 148.687 526.022 141.231C529.341 143.973 532.612 146.859 535.787 149.985Z" fill="black"/>
<path d="M610.831 183.175C609.195 199.289 593.417 211.795 577.783 212.565C560.224 213.479 544.061 202.56 535.017 188.033C531.842 182.934 523.761 187.648 526.936 192.747C538 210.4 558.444 224.013 579.947 221.704C600.296 219.539 618.046 203.858 620.163 183.127C620.788 177.21 611.456 177.258 610.831 183.175Z" fill="black"/>
<defs>
<linearGradient id="paint0_linear" x1="0.0732956" y1="234.952" x2="1025.23" y2="234.952" gradientUnits="userSpaceOnUse">
<stop stop-color="#00FFEC"/>
<stop offset="1" stop-color="#A194FF"/>
</linearGradient>
</defs>
</svg>
