<svg width="64" height="64" viewBox="0 0 64 64" fill="none" xmlns="http://www.w3.org/2000/svg">
<path d="M60.6927 30.3436C60.1255 22.8522 55.4605 14.7446 47.8615 12.593C47.0204 12.3583 46.1598 12.2214 45.2893 12.1529C45.1329 12.1431 44.996 12.1627 44.8786 12.2116C40.4483 11.8595 35.9299 11.7422 31.7735 13.5417C27.8811 15.214 24.9275 18.373 23.4312 22.3143C20.5559 29.8937 22.5901 39.3216 28.0962 45.1896C30.8346 48.1138 34.4336 50.1969 38.3065 51.2238C42.5216 52.3387 47.3529 52.4267 51.2845 50.324C58.0913 46.6565 61.2502 37.7079 60.6927 30.3436ZM52.194 47.4292C49.0937 49.9719 44.9568 50.4609 41.0938 49.8741C37.5632 49.346 34.1304 47.9182 31.3529 45.6492C25.5534 40.9059 22.9618 32.8668 24.4581 25.5514C25.3187 21.3558 27.705 17.7568 31.5388 15.7226C36.018 13.3559 41.2209 13.7764 46.0913 14.1969C46.1891 14.2067 46.2771 14.1969 46.3554 14.1774C52.7514 15.3118 57.1524 21.8155 58.4238 27.8204C59.8712 34.6468 57.7099 42.9206 52.194 47.4292Z" fill="#7A6FC5"/>
<path d="M34.8053 30.9013C35.1671 31.2631 35.7832 31.2631 36.1451 30.9013C36.507 30.5394 36.507 29.9233 36.1451 29.5614C35.4116 28.8377 34.639 28.1629 33.8468 27.5174C34.4727 26.5492 35.0889 25.581 35.7148 24.603C36.3798 23.5761 34.7368 22.6177 34.0718 23.6445C33.4947 24.5443 32.9177 25.4538 32.3309 26.3536C31.4703 25.7277 30.5803 25.1409 29.661 24.6128C29.2209 24.3585 28.6243 24.5052 28.3603 24.9551C28.106 25.3952 28.2527 25.9917 28.7026 26.2558C29.6121 26.7839 30.4727 27.3511 31.304 27.9575C30.2869 29.5418 29.2796 31.1262 28.2625 32.7008C27.5974 33.7277 29.2405 34.6861 29.9055 33.6592C30.8737 32.1433 31.8419 30.6372 32.8199 29.1213C33.4947 29.6788 34.1598 30.2656 34.8053 30.9013Z" fill="#7A6FC5"/>
<path d="M49.925 27.0087C50.9519 25.5906 51.9788 24.1823 53.0253 22.774C53.3284 22.3632 53.0937 21.7178 52.683 21.4733C52.2037 21.1896 51.6952 21.4048 51.3822 21.8156C50.3847 23.1554 49.4067 24.505 48.4189 25.8547C47.128 24.8962 45.8175 23.9769 44.4776 23.1065C43.4507 22.4415 42.5021 24.0845 43.5192 24.7495C44.8101 25.5906 46.0717 26.4708 47.304 27.3901C46.2478 28.8473 45.1818 30.3045 44.1157 31.752C43.8126 32.1627 44.0473 32.8082 44.458 33.0527C44.9373 33.3363 45.4458 33.1212 45.7588 32.7104C46.7857 31.3314 47.793 29.9329 48.8101 28.5442C49.7588 29.2874 50.6879 30.0503 51.5974 30.8424C51.9788 31.175 52.5558 31.2239 52.9372 30.8424C53.2795 30.5001 53.3284 29.8351 52.9372 29.5026C51.9592 28.6322 50.9519 27.8107 49.925 27.0087Z" fill="#7A6FC5"/>
<path d="M50.062 37.6493C49.7294 40.9256 46.5216 43.4684 43.3431 43.6248C39.7735 43.8107 36.4874 41.5906 34.6488 38.6371C34.0033 37.6004 32.3603 38.5588 33.0057 39.5955C35.2551 43.1847 39.4116 45.9525 43.7832 45.483C47.9202 45.0429 51.5289 41.8547 51.9593 37.6395C52.0864 36.4366 50.1891 36.4464 50.062 37.6493Z" fill="#7A6FC5"/>
<path d="M41.5632 30.3436C40.9959 22.8522 36.3309 14.7446 28.7319 12.593C27.8908 12.3583 27.0302 12.2214 26.1598 12.1529C26.0033 12.1431 25.8664 12.1627 25.749 12.2116C21.3187 11.8595 16.8004 11.7422 12.6439 13.5417C8.75147 15.214 5.79793 18.373 4.3016 22.3143C1.4263 29.8937 3.46052 39.3216 8.96663 45.1896C11.705 48.1138 15.304 50.1969 19.1769 51.2238C23.392 52.3387 28.2233 52.4267 32.1549 50.324C38.9617 46.6565 42.1206 37.7079 41.5632 30.3436ZM33.0644 47.4292C29.9642 49.9719 25.8272 50.4609 21.9642 49.8741C18.4336 49.346 15.0008 47.9182 12.2233 45.6492C6.42384 40.9059 3.83216 32.8668 5.32849 25.5514C6.18913 21.3558 8.57543 17.7568 12.4092 15.7226C16.8884 13.3559 22.0913 13.7764 26.9617 14.1969C27.0595 14.2067 27.1475 14.1969 27.2258 14.1774C33.6218 15.3118 38.0228 21.8155 39.2942 27.8204C40.7416 34.6468 38.5803 42.9206 33.0644 47.4292Z" fill="#0C0B1A"/>
<path d="M15.6757 30.9013C16.0375 31.2631 16.6537 31.2631 17.0155 30.9013C17.3774 30.5394 17.3774 29.9233 17.0155 29.5614C16.282 28.8377 15.5094 28.1629 14.7172 27.5174C15.3432 26.5492 15.9593 25.581 16.5852 24.603C17.2502 23.5761 15.6072 22.6177 14.9422 23.6445C14.3652 24.5443 13.7881 25.4538 13.2014 26.3536C12.3407 25.7277 11.4507 25.1409 10.5314 24.6128C10.0913 24.3585 9.49475 24.5052 9.2307 24.9551C8.97642 25.3952 9.12312 25.9917 9.57299 26.2558C10.4825 26.7839 11.3432 27.3511 12.1745 27.9575C11.1573 29.5418 10.15 31.1262 9.1329 32.7008C8.46786 33.7277 10.1109 34.6861 10.7759 33.6592C11.7441 32.1433 12.7124 30.6372 13.6903 29.1213C14.3652 29.6788 15.0302 30.2656 15.6757 30.9013Z" fill="#0C0B1A"/>
<path d="M30.9324 37.6493C30.5999 40.9256 27.392 43.4684 24.2136 43.6248C20.6439 43.8107 17.3578 41.5906 15.5192 38.6371C14.8737 37.6004 13.2307 38.5588 13.8762 39.5955C16.1256 43.1847 20.282 45.9525 24.6537 45.483C28.7906 45.0429 32.3994 41.8547 32.8297 37.6395C32.9568 36.4366 31.0595 36.4464 30.9324 37.6493Z" fill="#0C0B1A"/>
</svg>
