<svg width="156" height="60" viewBox="0 0 156 60" fill="none" xmlns="http://www.w3.org/2000/svg">
<path d="M15.4547 48.005C15.4913 50.3907 15.5278 52.8634 15.4547 55.3457C15.3596 57.799 14.3286 59.6342 12.9101 59.9529C12.8297 59.9722 12.7492 59.9819 12.6688 59.9916C11.5428 60.0978 10.3143 59.1995 9.74401 57.403C8.61064 58.9967 7.3091 59.8467 5.91982 59.8467C2.13219 59.9046 0.238375 54.0224 0.0701981 48.5362C-0.119915 41.949 0.106758 35.4293 0.384615 29.3636C0.457735 27.229 1.37174 25.5484 2.60016 25.3069C4.01869 25.0268 5.28367 26.6977 5.4226 29.0255C5.68583 33.8646 5.86132 38.24 5.96369 42.4126C5.971 42.8182 5.971 43.3881 5.96369 44.0739C5.92713 47.5897 6.0295 49.8498 6.26348 50.8061C7.916 49.2413 9.55389 43.0404 9.72207 40.8865C9.87562 39.0417 9.87562 36.965 9.86831 34.7821V33.9225C9.86831 31.643 9.90487 29.7209 9.97799 27.8858C9.99261 25.7995 10.8993 24.0512 12.1716 23.6939C13.4439 23.3268 14.9429 24.4762 15.1257 26.9489C15.4986 31.9811 15.6082 36.3469 15.462 41.0893C15.3889 43.3495 15.4181 45.6096 15.4547 48.005ZM25.7866 42.287C25.5453 43.4074 25.1651 44.4989 24.6313 45.3295C24.0171 46.2761 23.2639 46.759 22.4596 46.6914C21.0776 46.5658 19.9077 45.2329 19.3813 43.166C18.8913 41.2439 19.2058 38.9354 20.032 37.2162C20.9753 35.2554 22.4596 34.927 23.8197 34.9174C24.0098 34.9174 24.1779 35.0043 24.3169 35.1492C24.4339 35.2071 24.5509 35.2941 24.6459 35.41C25.8963 36.8684 26.3277 39.7951 25.7866 42.287ZM45.7119 53.3173C44.169 55.7996 42.1143 57.2871 40.0523 57.4803C39.6794 57.5189 39.3065 57.5092 38.9409 57.4513C34.5903 56.8042 31.607 51.3856 31.0805 43.3108C30.693 37.3127 30.9854 28.6392 34.6122 21.3082C35.6286 19.2991 37.0471 16.9617 39.1091 16.6236C42.0412 16.131 44.3884 19.4343 45.4121 22.9405C45.7777 24.2251 45.7192 25.5966 45.2731 26.7364C44.8125 27.9051 44.0228 28.6488 43.1088 28.7744C42.246 28.8999 41.098 28.4943 40.4691 27.0068C40.1255 26.2534 39.8769 26.0699 39.7964 26.0313C39.365 26.4176 38.4071 28.6102 37.6906 31.8169C37.1056 34.531 36.9155 37.7957 37.1056 41.7751C37.42 47.7346 39.036 47.8794 39.5771 47.9277C42.0339 48.1402 42.5677 43.6006 42.6335 42.8665C42.7651 40.9058 43.7449 39.3894 44.9807 39.2348C46.3553 39.061 47.9713 40.6837 48.0956 43.108C48.3222 46.7977 47.4521 50.5163 45.7119 53.3173ZM68.3426 33.1498C68.3499 38.9644 68.1378 44.779 67.9331 49.8112C67.8454 51.9265 67.1068 53.5974 65.9004 54.3991L65.4982 54.6309C64.6427 55.0849 63.6556 54.9883 62.8001 54.3701C61.8495 53.6747 61.206 52.448 61.0159 50.9992C60.7308 49.0868 60.8624 47.0005 60.9794 45.1557C61.0086 44.7114 61.0305 44.2864 61.0525 43.8614C61.0817 42.8955 61.1183 41.8524 61.1548 40.8092C61.1914 39.6695 61.2353 38.5008 61.2718 37.3417C60.2043 37.6315 59.144 37.8633 58.0911 38.0758C58.135 40.4036 58.1789 42.77 58.1789 45.1363C58.1862 45.4454 58.1935 45.8125 58.2008 46.1795C58.2593 48.4686 58.3251 51.0668 57.3892 53.7327C56.9139 55.0946 56.0218 55.9542 55.0054 56.0508C53.777 56.1667 52.5705 55.1622 52.0587 53.6264C51.2544 51.0765 51.2471 48.6908 51.2397 46.3727C51.2397 45.996 51.2397 45.6096 51.2324 45.2233C51.2324 42.4898 51.2032 39.8916 51.1739 37.1485V37.0037C51.152 35.6128 51.1154 34.193 51.0789 32.7538C50.9692 28.5426 50.8595 24.1961 51.0569 19.84C51.1374 17.5123 52.3146 15.5998 53.8648 15.339C55.3857 15.0879 56.7164 16.4788 57.0162 18.652C57.3892 21.4917 57.6378 24.5632 57.8059 28.3494C57.8571 28.3301 57.9083 28.3204 57.9668 28.3011C59.1002 27.9824 60.2701 27.654 61.4035 27.258C61.3961 26.6784 61.3888 26.1086 61.3815 25.529C61.3742 24.9592 61.3523 24.4183 61.3376 23.887C61.2645 21.7814 61.1914 19.4054 61.7106 16.9231C62.0615 15.1072 63.0852 13.7646 64.299 13.5715C65.9004 13.3107 67.4066 15.0106 67.6552 17.377C67.9697 20.7769 68.1671 24.2058 68.2548 27.6153C68.5107 28.1755 68.6789 28.813 68.752 29.4988C68.8032 29.8755 68.8105 30.2135 68.8178 30.4454C68.8398 31.3726 68.6716 32.3192 68.3426 33.1498ZM124.258 23.2496C124.623 24.0802 125.113 24.8819 125.64 25.7319C126.868 27.7216 128.257 29.9914 128.55 33.5651C128.915 38.2207 127.46 44.75 124.06 47.667C122.781 48.7584 120.85 50.0913 118.832 50.2748C117.319 50.41 115.9 49.8788 114.723 48.7294C113.319 47.3386 112.873 44.7017 113.677 42.5671C114.452 40.5195 116.127 39.5439 117.75 40.2104L117.801 40.2297C117.823 40.2394 117.911 40.2587 118.196 40.2297C119.154 40.1234 120.046 39.2542 120.214 38.7133C120.689 37.2355 120.587 35.352 119.951 33.8839C119.614 33.1305 119.154 32.3675 118.664 31.5561C117.655 29.8658 116.507 27.963 115.988 25.2296C115.081 20.5258 116.054 14.3731 118.364 10.2489C120.148 7.07111 122.576 5.2939 125.201 5.25526C126.978 5.28424 128.55 7.36088 128.667 9.78523C128.769 11.8715 127.819 13.8129 126.298 14.605C125.04 15.2328 124.418 16.8168 124.155 17.7054C123.6 19.6468 123.636 21.8104 124.258 23.2496ZM153.886 43.8034C151.232 46.0926 147.875 47.5607 144.673 47.8505C142.421 48.0533 140.315 47.6959 138.582 46.817C133.705 44.354 133.588 36.9747 133.507 32.097C133.5 31.4402 133.485 30.8027 133.463 30.2039C133.215 23.0564 133.354 15.5902 136.023 9.29263C138.904 2.65705 144.527 1.32414 148.694 0.338946L149.725 0.0878173C152.014 -0.501368 154.135 1.97128 154.449 4.59847C154.734 6.99384 153.623 9.29263 151.758 10.1716C150.83 10.5869 149.879 10.896 148.965 11.1858C146.947 11.8329 144.68 12.567 143.825 14.0351C143.196 15.0879 142.808 16.5753 142.56 18.1208C144.161 17.6668 145.748 17.3384 147.298 17.3094C149.148 17.2225 150.844 19.077 151.173 21.6269C151.466 23.8677 150.617 26.0409 149.023 27.2L148.563 27.5574L148.292 27.6829C148.102 27.7699 147.875 27.8761 147.59 27.9534C145.821 28.7261 143.934 29.1704 142.15 29.4891C142.179 30.1459 142.209 30.8124 142.238 31.4982C142.267 32.068 142.267 32.7345 142.267 33.4396C142.267 34.3861 142.267 35.9605 142.428 36.5014C142.421 36.4435 142.655 36.627 143.422 36.54C145.375 36.3275 148.146 34.6662 149.338 33.9611C151.773 32.5703 154.5 34.5214 155.436 37.1485C156.306 39.5246 155.663 42.2677 153.886 43.8034Z" fill="#0C0B1A"/>
<path d="M112.485 28.5802C112.061 21.1816 108.573 13.1745 102.892 11.0495C102.263 10.8177 101.62 10.6825 100.969 10.6149C100.852 10.6052 100.749 10.6246 100.662 10.6729C97.3494 10.3251 93.9712 10.2092 90.8636 11.9864C87.9534 13.6381 85.7452 16.7579 84.6265 20.6504C82.4767 28.1359 83.9976 37.447 88.1143 43.2422C90.1617 46.1302 92.8525 48.1875 95.7481 49.2017C98.8995 50.3028 102.512 50.3897 105.451 48.3131C110.54 44.6911 112.902 35.8533 112.485 28.5802ZM106.131 45.4541C103.813 47.9654 100.72 48.4483 97.832 47.8688C95.1923 47.3472 92.6258 45.937 90.5492 43.6962C86.2132 39.0117 84.2755 31.0722 85.3942 23.8474C86.0377 19.7038 87.8218 16.1494 90.6881 14.1404C94.037 11.8029 97.927 12.2183 101.568 12.6336C101.642 12.6432 101.707 12.6336 101.766 12.6143C106.548 13.7347 109.838 20.1578 110.789 26.0883C111.871 32.8301 110.255 41.0014 106.131 45.4541Z" fill="#0C0B1A"/>
<path d="M93.1312 29.1311C93.4018 29.4885 93.8624 29.4885 94.133 29.1311C94.4035 28.7737 94.4035 28.1652 94.133 27.8079C93.5846 27.0931 93.0069 26.4266 92.4146 25.7892C92.8826 24.8329 93.3433 23.8767 93.8112 22.9109C94.3084 21.8967 93.08 20.9501 92.5828 21.9643C92.1514 22.8529 91.72 23.7512 91.2813 24.6398C90.6378 24.0216 89.9724 23.4421 89.2851 22.9205C88.956 22.6694 88.51 22.8143 88.3126 23.2586C88.1225 23.6932 88.2321 24.2824 88.5685 24.5432C89.2485 25.0648 89.892 25.625 90.5135 26.2238C89.7531 27.7885 88.9999 29.3533 88.2395 30.9083C87.7422 31.9225 88.9707 32.8691 89.4679 31.8549C90.1918 30.3578 90.9157 28.8703 91.6469 27.3732C92.1514 27.9238 92.6486 28.5033 93.1312 29.1311Z" fill="#0C0B1A"/>
<path d="M104.436 25.2862C105.203 23.8857 105.971 22.4948 106.753 21.1039C106.98 20.6983 106.805 20.0608 106.498 19.8193C106.139 19.5392 105.759 19.7517 105.525 20.1574C104.779 21.4806 104.048 22.8135 103.309 24.1465C102.344 23.1999 101.364 22.292 100.363 21.4323C99.595 20.7755 98.8857 22.3982 99.6461 23.055C100.611 23.8857 101.555 24.755 102.476 25.6629C101.686 27.102 100.889 28.5412 100.092 29.9707C99.8655 30.3764 100.041 31.0138 100.348 31.2553C100.706 31.5354 101.087 31.3229 101.321 30.9173C102.088 29.5554 102.841 28.1742 103.602 26.8026C104.311 27.5367 105.006 28.2901 105.686 29.0724C105.971 29.4008 106.402 29.4491 106.688 29.0724C106.944 28.7344 106.98 28.0776 106.688 27.7492C105.956 26.8895 105.203 26.0782 104.436 25.2862Z" fill="#0C0B1A"/>
<path d="M104.537 35.7943C104.289 39.03 101.89 41.5413 99.514 41.6958C96.8451 41.8793 94.3883 39.6868 93.0136 36.7698C92.5311 35.746 91.3026 36.6926 91.7852 37.7164C93.467 41.2612 96.5746 43.9946 99.8431 43.531C102.936 43.0963 105.634 39.9476 105.956 35.7846C106.051 34.5966 104.632 34.6063 104.537 35.7943Z" fill="#0C0B1A"/>
<path d="M100.786 29.547C100.361 22.1484 96.8736 14.1413 91.1922 12.0163C90.5634 11.7845 89.9199 11.6493 89.2691 11.5817C89.1521 11.572 89.0498 11.5914 88.962 11.6397C85.6497 11.2919 82.2715 11.176 79.1639 12.9532C76.2537 14.6049 74.0455 17.7247 72.9268 21.6172C70.777 29.1027 72.2979 38.4138 76.4146 44.209C78.462 47.097 81.1528 49.1543 84.0484 50.1685C87.1998 51.2696 90.812 51.3565 93.7514 49.2799C98.8406 45.6579 101.202 36.8201 100.786 29.547ZM94.4314 46.4209C92.1135 48.9322 89.0205 49.4151 86.1323 48.8356C83.4926 48.314 80.9261 46.9038 78.8495 44.663C74.5135 39.9785 72.5758 32.039 73.6945 24.8142C74.338 20.6706 76.1221 17.1162 78.9884 15.1072C82.3373 12.7697 86.2273 13.1851 89.8687 13.6004C89.9418 13.61 90.0077 13.6004 90.0661 13.5811C94.8482 14.7015 98.1386 21.1246 99.0892 27.0551C100.171 33.7969 98.5554 41.9682 94.4314 46.4209Z" fill="#0C0B1A"/>
<path d="M81.4309 30.0955C81.7014 30.4528 82.1621 30.4528 82.4326 30.0955C82.7032 29.7381 82.7032 29.1296 82.4326 28.7722C81.8842 28.0575 81.3066 27.391 80.7143 26.7535C81.1823 25.7973 81.6429 24.8411 82.1109 23.8752C82.6081 22.861 81.3797 21.9145 80.8825 22.9286C80.4511 23.8173 80.0197 24.7155 79.581 25.6041C78.9375 24.986 78.2721 24.4064 77.5848 23.8849C77.2557 23.6337 76.8097 23.7786 76.6123 24.2229C76.4222 24.6576 76.5318 25.2468 76.8682 25.5075C77.5482 26.0291 78.1917 26.5893 78.8132 27.1882C78.0527 28.7529 77.2996 30.3176 76.5391 31.8727C76.0419 32.8868 77.2703 33.8334 77.7676 32.8192C78.4915 31.3221 79.2153 29.8347 79.9466 28.3376C80.4511 28.8881 80.9483 29.4676 81.4309 30.0955Z" fill="#0C0B1A"/>
<path d="M92.8377 36.7611C92.5891 39.9968 90.1907 42.5081 87.8143 42.6626C85.1454 42.8461 82.6886 40.6536 81.3139 37.7366C80.8314 36.7128 79.6029 37.6594 80.0855 38.6832C81.7673 42.228 84.8749 44.9614 88.1434 44.4978C91.2364 44.0631 93.9345 40.9144 94.2562 36.7514C94.3513 35.5634 92.9328 35.5731 92.8377 36.7611Z" fill="#0C0B1A"/>
</svg>
