<svg width="64" height="64" viewBox="0 0 64 64" fill="none" xmlns="http://www.w3.org/2000/svg">
<g filter="url(#filter0_d)">
<path d="M20.5 47L31.5 51L39.5 50L47.5 44.5L52 32L50.4474 23.4606C50.1509 21.8301 49.603 20.2556 48.8231 18.7933L46 13.5L42.6147 11.6771C40.563 10.5724 38.2948 9.9291 35.9686 9.79227L31 9.5L30 10L25 9.5L19.5 12L15 15L11.5 21L10.5 27L11.5 33L14.5 40.5L20.5 47Z" fill="#6DEDE3"/>
</g>
<path d="M53.3597 28.0429C52.7072 19.8357 47.341 10.9536 38.5997 8.59646C37.6322 8.33931 36.6422 8.18932 35.641 8.11432C35.461 8.1036 35.3035 8.12503 35.1685 8.1786C30.0722 7.79289 24.8747 7.66432 20.0935 9.63574C15.616 11.4679 12.2185 14.9286 10.4972 19.2465C7.18975 27.55 9.52975 37.8786 15.8635 44.3072C19.0135 47.5107 23.1535 49.7929 27.6085 50.9179C32.4572 52.1393 38.0147 52.2357 42.5372 49.9322C50.3672 45.9143 54.001 36.1107 53.3597 28.0429ZM43.5835 46.7607C40.0172 49.5465 35.2585 50.0822 30.8147 49.4393C26.7535 48.8607 22.8047 47.2965 19.6097 44.8107C12.9385 39.6143 9.95725 30.8072 11.6785 22.7929C12.6685 18.1965 15.4135 14.2536 19.8235 12.025C24.976 9.43217 30.961 9.89289 36.5635 10.3536C36.676 10.3643 36.7772 10.3536 36.8672 10.3322C44.2247 11.575 49.2872 18.7 50.7497 25.2786C52.4147 32.7572 49.9285 41.8215 43.5835 46.7607Z" fill="black"/>
<path d="M23.5811 28.6537C23.9973 29.0501 24.7061 29.0501 25.1223 28.6537C25.5386 28.2572 25.5386 27.5822 25.1223 27.1858C24.2786 26.393 23.3898 25.6537 22.4786 24.9465C23.1986 23.8858 23.9073 22.8251 24.6273 21.7537C25.3923 20.6287 23.5023 19.5787 22.7373 20.7037C22.0736 21.6894 21.4098 22.6858 20.7348 23.6715C19.7448 22.9858 18.7211 22.343 17.6636 21.7644C17.1573 21.4858 16.4711 21.6465 16.1673 22.1394C15.8748 22.6215 16.0436 23.2751 16.5611 23.5644C17.6073 24.143 18.5973 24.7644 19.5536 25.4287C18.3836 27.1644 17.2248 28.9001 16.0548 30.6251C15.2898 31.7501 17.1798 32.8001 17.9448 31.6751C19.0586 30.0144 20.1723 28.3644 21.2973 26.7037C22.0736 27.3144 22.8386 27.9572 23.5811 28.6537Z" fill="black"/>
<path d="M40.9736 24.3892C42.1549 22.8357 43.3361 21.2928 44.5399 19.7499C44.8886 19.2999 44.6186 18.5928 44.1461 18.3249C43.5949 18.0142 43.0099 18.2499 42.6499 18.6999C41.5024 20.1678 40.3774 21.6464 39.2411 23.1249C37.7561 22.0749 36.2486 21.0678 34.7074 20.1142C33.5261 19.3857 32.4349 21.1857 33.6049 21.9142C35.0899 22.8357 36.5411 23.7999 37.9586 24.8071C36.7436 26.4035 35.5174 27.9999 34.2911 29.5857C33.9424 30.0357 34.2124 30.7428 34.6849 31.0107C35.2361 31.3214 35.8211 31.0857 36.1811 30.6357C37.3624 29.1249 38.5211 27.5928 39.6911 26.0714C40.7824 26.8857 41.8511 27.7214 42.8974 28.5892C43.3361 28.9535 43.9999 29.0071 44.4386 28.5892C44.8324 28.2142 44.8886 27.4857 44.4386 27.1214C43.3136 26.1678 42.1549 25.2678 40.9736 24.3892Z" fill="black"/>
<path d="M41.131 36.0465C40.7485 39.6358 37.0585 42.4215 33.4023 42.5929C29.296 42.7965 25.516 40.3644 23.401 37.1286C22.6585 35.9929 20.7685 37.0429 21.511 38.1786C24.0985 42.1108 28.8798 45.1429 33.9085 44.6286C38.6673 44.1465 42.8185 40.6536 43.3135 36.0358C43.4598 34.7179 41.2773 34.7286 41.131 36.0465Z" fill="black"/>
<defs>
<filter id="filter0_d" x="6.5" y="9.5" width="49.5" height="49.5" filterUnits="userSpaceOnUse" color-interpolation-filters="sRGB">
<feFlood flood-opacity="0" result="BackgroundImageFix"/>
<feColorMatrix in="SourceAlpha" type="matrix" values="0 0 0 0 0 0 0 0 0 0 0 0 0 0 0 0 0 0 127 0"/>
<feOffset dy="4"/>
<feGaussianBlur stdDeviation="2"/>
<feColorMatrix type="matrix" values="0 0 0 0 0 0 0 0 0 0 0 0 0 0 0 0 0 0 0.25 0"/>
<feBlend mode="normal" in2="BackgroundImageFix" result="effect1_dropShadow"/>
<feBlend mode="normal" in="SourceGraphic" in2="effect1_dropShadow" result="shape"/>
</filter>
</defs>
</svg>
