<svg width="64" height="64" viewBox="0 0 64 64" fill="none" xmlns="http://www.w3.org/2000/svg">
<g clip-path="url(#clip0)">
<path d="M52.5452 28.416C51.916 20.2453 46.7418 11.4026 38.3133 9.05597C37.3804 8.79997 36.4259 8.65064 35.4604 8.57597C35.2869 8.56531 35.135 8.58664 35.0049 8.63997C30.091 8.25597 25.0794 8.12797 20.4693 10.0906C16.152 11.9146 12.876 15.36 11.2164 19.6586C8.02723 27.9253 10.2835 38.208 16.3906 44.608C19.4279 47.7973 23.4198 50.0693 27.7154 51.1893C32.3906 52.4053 37.7493 52.5013 42.1099 50.208C49.6598 46.208 53.1635 36.448 52.5452 28.416ZM43.1188 47.0506C39.6801 49.824 35.0916 50.3573 30.8069 49.7173C26.891 49.1413 23.0835 47.584 20.0028 45.1093C13.5703 39.936 10.6957 31.168 12.3554 23.1893C13.3099 18.6133 15.9567 14.688 20.2089 12.4693C25.1771 9.88797 30.9479 10.3466 36.3499 10.8053C36.4584 10.816 36.556 10.8053 36.6428 10.784C43.7371 12.0213 48.6184 19.1146 50.0286 25.664C51.634 33.1093 49.2367 42.1333 43.1188 47.0506Z" fill="black"/>
<path d="M22.7579 25.3227C23.4522 24.2667 24.1356 23.2107 24.8298 22.1441C25.5674 21.0241 23.745 19.9787 23.0074 21.0987C22.3674 22.0801 21.7274 23.0721 21.0766 24.0534C20.122 23.3707 19.1349 22.7307 18.1152 22.1547C17.6271 21.8774 16.9654 22.0374 16.6725 22.5281C16.3905 23.0081 16.5532 23.6587 17.0522 23.9467C18.061 24.5227 19.0156 25.1414 19.9376 25.8027C18.8095 27.5307 17.6922 29.2587 16.564 30.9761C15.8264 32.0961 17.6488 33.1414 18.3864 32.0214C19.4603 30.3681 20.5342 28.7254 21.6189 27.0721C22.3783 27.6907 23.1159 28.3201 23.821 29.0134C24.2223 29.4081 24.9057 29.4081 25.3071 29.0134C25.7084 28.6187 25.7084 27.9467 25.3071 27.5521C24.5044 26.7734 23.6474 26.0374 22.7579 25.3227Z" fill="black"/>
<path d="M40.6019 24.7786C41.7409 23.232 42.8799 21.696 44.0406 20.16C44.3769 19.712 44.1165 19.008 43.6609 18.7413C43.1294 18.432 42.5653 18.6666 42.2182 19.1146C41.1118 20.576 40.027 22.048 38.9314 23.52C37.4996 22.4746 36.046 21.472 34.5599 20.5226C33.4209 19.7973 32.3687 21.5893 33.4969 22.304C34.9287 23.2213 36.328 24.1813 37.6948 25.184C36.5233 26.7733 35.3409 28.3626 34.1586 29.9413C33.8223 30.3893 34.0826 31.0933 34.5382 31.36C35.0697 31.6693 35.6338 31.4346 35.9809 30.9866C37.1199 29.4826 38.2372 27.9573 39.3653 26.4426C40.4175 27.2533 41.448 28.0853 42.4569 28.9493C42.8799 29.312 43.5199 29.3653 43.943 28.9493C44.3226 28.576 44.3769 27.8506 43.943 27.488C42.8582 26.5493 41.7409 25.6533 40.6019 24.7786Z" fill="black"/>
<path d="M33.1065 37.0025C32.7052 36.8959 32.2821 36.8319 31.8482 36.8532C31.0889 36.8852 30.4055 37.0772 29.7221 37.3972C28.5289 37.9625 27.5201 39.1252 27.2164 40.3945C26.5113 43.4559 29.2991 46.5279 32.4774 46.1012C33.5513 45.9625 34.3757 45.4079 35.0049 44.5439C35.4604 43.9145 35.7859 43.1359 36.0571 42.4212C36.6211 40.9065 36.4693 38.9652 35.1893 37.8345C34.6143 37.3332 33.8767 37.0239 33.1065 37.0025ZM33.074 40.3625C33.0523 40.3305 33.0198 40.2879 33.0089 40.2665H33.0198C33.0306 40.2879 33.0415 40.3092 33.0632 40.3305C33.074 40.3412 33.074 40.3519 33.074 40.3625ZM31.0564 41.4185V41.4292C31.0455 41.4185 31.0455 41.4079 31.0455 41.3972C31.0455 41.3865 31.0455 41.3759 31.0455 41.3759C31.0455 41.3865 31.0564 41.4079 31.0564 41.4185ZM31.0347 41.5145C31.0347 41.4612 31.0347 41.4292 31.0347 41.3972C31.0455 41.4399 31.0455 41.4719 31.0347 41.5145C31.0455 41.5145 31.0347 41.5145 31.0347 41.5145ZM31.013 41.2372C31.013 41.2479 31.013 41.2372 31.013 41.2372C31.013 41.2479 31.013 41.2479 31.013 41.2585C31.013 41.2692 31.0238 41.2905 31.0238 41.3012C31.0238 41.3225 31.0347 41.3439 31.0347 41.3759C31.0347 41.3865 31.0347 41.3972 31.0347 41.4079C31.013 41.3225 31.0021 41.2585 31.013 41.2372C30.9913 41.2265 30.9696 41.1839 30.9479 41.1305C30.9479 41.1305 30.9479 41.1305 30.9588 41.1412C30.9696 41.1732 30.9913 41.2052 31.013 41.2372ZM32.7269 40.2239C32.7269 40.2239 32.7377 40.2239 32.7269 40.2239C32.7486 40.2132 32.7594 40.2132 32.7703 40.2132C32.7703 40.2132 32.7703 40.2132 32.7811 40.2132C32.716 40.2559 32.6618 40.2665 32.651 40.2665C32.6726 40.2559 32.7052 40.2452 32.7269 40.2239ZM32.2604 42.8372C32.2496 42.8479 32.2387 42.8585 32.2279 42.8692C32.2604 42.8265 32.2279 42.8585 32.1845 42.8905C32.2062 42.8692 32.2279 42.8479 32.2713 42.8159C32.2713 42.8265 32.2713 42.8372 32.2604 42.8372Z" fill="black"/>
</g>
<defs>
<clipPath id="clip0">
<rect width="64" height="64" fill="white"/>
</clipPath>
</defs>
</svg>
